<svg width="375" height="321" viewBox="0 0 375 321" fill="none" xmlns="http://www.w3.org/2000/svg">
<rect width="375" height="321" fill="#F5F5F5"/>
<g clip-path="url(#clip0_0_1)">
<rect width="375" height="812" transform="translate(0 -207)" fill="white"/>
<rect width="375" height="321" fill="#49CE91" fill-opacity="0.05"/>
<path d="M89.581 107.837C88.6554 107.837 87.7677 108.205 87.1132 108.86C86.4587 109.515 86.0911 110.403 86.0911 111.329C86.0911 112.255 86.4587 113.144 87.1132 113.798C87.7677 114.453 88.6554 114.821 89.581 114.821H133.449V113.298C133.449 112.215 133.717 111.15 134.231 110.197C134.744 109.243 135.485 108.433 136.389 107.837H89.581Z" fill="#2F9FDD"/>
<path d="M129.499 99.9806H114.667C113.741 99.9806 112.853 99.6127 112.199 98.9578C111.544 98.303 111.177 97.4148 111.177 96.4887C111.177 95.5626 111.544 94.6744 112.199 94.0196C112.853 93.3647 113.741 92.9968 114.667 92.9968H129.499C130.424 92.9968 131.312 93.3647 131.966 94.0196C132.621 94.6744 132.989 95.5626 132.989 96.4887C132.989 97.4148 132.621 98.303 131.966 98.9578C131.312 99.6127 130.424 99.9806 129.499 99.9806Z" fill="#2F9FDD"/>
<path d="M96.2333 75.1009H38.6501C37.7245 75.1009 36.8368 74.733 36.1823 74.0782C35.5278 73.4233 35.1602 72.5352 35.1602 71.6091C35.1602 70.683 35.5278 69.7948 36.1823 69.1399C36.8368 68.4851 37.7245 68.1172 38.6501 68.1172H96.2333C97.1588 68.1172 98.0465 68.4851 98.701 69.1399C99.3555 69.7948 99.7232 70.683 99.7232 71.6091C99.7232 72.5352 99.3555 73.4233 98.701 74.0782C98.0465 74.733 97.1588 75.1009 96.2333 75.1009Z" fill="#2F9FDD"/>
<path d="M71.1496 60.2606H63.7335C62.808 60.2606 61.9203 59.8927 61.2658 59.2379C60.6113 58.583 60.2437 57.6948 60.2437 56.7687C60.2437 55.8426 60.6113 54.9545 61.2658 54.2996C61.9203 53.6447 62.808 53.2769 63.7335 53.2769H71.1496C72.0751 53.2769 72.9628 53.6447 73.6173 54.2996C74.2718 54.9545 74.6395 55.8426 74.6395 56.7687C74.6395 57.6948 74.2718 58.583 73.6173 59.2379C72.9628 59.8927 72.0751 60.2606 71.1496 60.2606Z" fill="#2F9FDD"/>
<path d="M133.011 178.065H78.7263C76.7602 178.063 74.8751 177.281 73.4849 175.89C72.0946 174.499 71.3125 172.612 71.3103 170.645V84.7276C71.3125 82.7603 72.0946 80.8742 73.4849 79.4832C74.8751 78.0921 76.7602 77.3096 78.7263 77.3074H165.439C167.405 77.3096 169.29 78.0921 170.68 79.4832C172.07 80.8742 172.852 82.7603 172.855 84.7276V106.023H171.982V84.7276C171.98 82.9918 171.29 81.3276 170.063 80.1002C168.837 78.8727 167.174 78.1823 165.439 78.1803H78.7263C76.9915 78.1823 75.3282 78.8727 74.1015 80.1002C72.8748 81.3276 72.1848 82.9918 72.1828 84.7276V170.645C72.1848 172.381 72.8748 174.045 74.1015 175.273C75.3282 176.5 76.9915 177.19 78.7263 177.192H133.011V178.065Z" fill="#49CE91"/>
<path d="M71.7465 126.632H32.1758C30.2096 126.63 28.3246 125.847 26.9343 124.456C25.544 123.065 24.762 121.179 24.7598 119.212V49.3485C24.762 47.3812 25.544 45.4951 26.9343 44.104C28.3246 42.7129 30.2096 41.9304 32.1758 41.9282H102.707C104.673 41.9304 106.558 42.7129 107.949 44.104C109.339 45.4951 110.121 47.3812 110.123 49.3485V77.7438H109.251V49.3485C109.249 47.6126 108.559 45.9484 107.332 44.721C106.105 43.4936 104.442 42.8032 102.707 42.8012H32.1758C30.4409 42.8032 28.7777 43.4936 27.551 44.721C26.3242 45.9484 25.6342 47.6126 25.6322 49.3485V119.212C25.6342 120.947 26.3242 122.612 27.551 123.839C28.7777 125.066 30.4409 125.757 32.1758 125.759H71.7465V126.632Z" fill="#49CE91"/>
<path d="M248.371 107.837C249.274 108.433 250.016 109.243 250.529 110.197C251.043 111.15 251.311 112.215 251.311 113.298V114.821H295.179C296.105 114.821 296.992 114.453 297.647 113.798C298.301 113.144 298.669 112.255 298.669 111.329C298.669 110.403 298.301 109.515 297.647 108.86C296.992 108.205 296.105 107.837 295.179 107.837H248.371Z" fill="#2F9FDD"/>
<path d="M251.771 96.4887C251.772 95.5629 252.14 94.6754 252.795 94.0207C253.449 93.3661 254.336 92.9979 255.261 92.9968H270.093C271.019 92.9968 271.906 93.3647 272.561 94.0196C273.215 94.6744 273.583 95.5626 273.583 96.4887C273.583 97.4148 273.215 98.303 272.561 98.9578C271.906 99.6127 271.019 99.9806 270.093 99.9806H255.261C254.336 99.9795 253.449 99.6113 252.795 98.9567C252.14 98.302 251.772 97.4145 251.771 96.4887Z" fill="#2F9FDD"/>
<path d="M285.037 71.6091C285.038 70.6833 285.406 69.7957 286.06 69.1411C286.714 68.4865 287.602 68.1182 288.527 68.1172H346.11C347.036 68.1172 347.923 68.4851 348.578 69.1399C349.232 69.7948 349.6 70.683 349.6 71.6091C349.6 72.5352 349.232 73.4233 348.578 74.0782C347.923 74.733 347.036 75.1009 346.11 75.1009H288.527C287.602 75.0999 286.714 74.7316 286.06 74.077C285.406 73.4224 285.038 72.5348 285.037 71.6091Z" fill="#2F9FDD"/>
<path d="M310.12 56.7687C310.121 55.843 310.489 54.9554 311.144 54.3008C311.798 53.6461 312.685 53.2779 313.61 53.2769H321.026C321.952 53.2769 322.84 53.6447 323.494 54.2996C324.148 54.9545 324.516 55.8426 324.516 56.7687C324.516 57.6948 324.148 58.583 323.494 59.2379C322.84 59.8927 321.952 60.2606 321.026 60.2606H313.61C312.685 60.2596 311.798 59.8913 311.144 59.2367C310.489 58.5821 310.121 57.6945 310.12 56.7687Z" fill="#2F9FDD"/>
<path d="M251.749 178.065H306.033C308 178.063 309.885 177.281 311.275 175.89C312.665 174.499 313.447 172.612 313.449 170.645V84.7276C313.447 82.7603 312.665 80.8742 311.275 79.4832C309.885 78.0921 308 77.3096 306.033 77.3074H219.321C217.355 77.3096 215.47 78.0921 214.08 79.4832C212.689 80.8742 211.907 82.7603 211.905 84.7276V106.023H212.778V84.7276C212.779 82.9918 213.47 81.3276 214.696 80.1002C215.923 78.8727 217.586 78.1823 219.321 78.1803H306.033C307.768 78.1823 309.431 78.8727 310.658 80.1002C311.885 81.3276 312.575 82.9918 312.577 84.7276V170.645C312.575 172.381 311.885 174.045 310.658 175.273C309.431 176.5 307.768 177.19 306.033 177.192H251.749V178.065Z" fill="#49CE91"/>
<path d="M313.013 126.632H352.584C354.55 126.63 356.435 125.847 357.826 124.456C359.216 123.065 359.998 121.179 360 119.212V49.3485C359.998 47.3812 359.216 45.4951 357.826 44.104C356.435 42.7129 354.55 41.9304 352.584 41.9282H282.053C280.087 41.9304 278.202 42.7129 276.811 44.104C275.421 45.4951 274.639 47.3812 274.637 49.3485V77.7438H275.509V49.3485C275.511 47.6126 276.201 45.9484 277.428 44.721C278.655 43.4936 280.318 42.8032 282.053 42.8012H352.584C354.319 42.8032 355.982 43.4936 357.209 44.721C358.436 45.9484 359.126 47.6126 359.128 49.3485V119.212C359.126 120.947 358.436 122.612 357.209 123.839C355.982 125.066 354.319 125.757 352.584 125.759H313.013V126.632Z" fill="#49CE91"/>
<path d="M244.584 105.878H139.992C138.027 105.881 136.143 106.664 134.753 108.055C133.363 109.446 132.58 111.331 132.576 113.298V216.959C132.578 218.926 133.36 220.812 134.751 222.203C136.141 223.594 138.026 224.377 139.992 224.379H244.584C246.551 224.377 248.436 223.594 249.826 222.203C251.216 220.812 251.998 218.926 252 216.959V113.298C251.998 111.33 251.216 109.444 249.826 108.053C248.436 106.662 246.551 105.88 244.584 105.878ZM251.128 216.959C251.126 218.694 250.436 220.358 249.209 221.586C247.982 222.813 246.319 223.504 244.584 223.506H139.992C138.258 223.504 136.594 222.813 135.368 221.586C134.141 220.358 133.451 218.694 133.449 216.959V113.298C133.452 111.562 134.142 109.898 135.368 108.671C136.595 107.444 138.258 106.753 139.992 106.751H244.584C246.319 106.753 247.982 107.443 249.209 108.671C250.436 109.898 251.126 111.562 251.128 113.298V216.959Z" fill="#26B171"/>
<path d="M236.348 146.248H148.228C147.303 146.248 146.415 145.88 145.76 145.225C145.106 144.57 144.738 143.682 144.738 142.756C144.738 141.83 145.106 140.942 145.76 140.287C146.415 139.632 147.303 139.264 148.228 139.264H236.348C237.273 139.264 238.161 139.632 238.816 140.287C239.47 140.942 239.838 141.83 239.838 142.756C239.838 143.682 239.47 144.57 238.816 145.225C238.161 145.88 237.273 146.248 236.348 146.248Z" fill="#2F9FDD"/>
<path d="M211.264 131.408H173.312C172.386 131.408 171.498 131.04 170.844 130.385C170.189 129.73 169.822 128.842 169.822 127.916C169.822 126.99 170.189 126.101 170.844 125.447C171.498 124.792 172.386 124.424 173.312 124.424H211.264C212.19 124.424 213.077 124.792 213.732 125.447C214.386 126.101 214.754 126.99 214.754 127.916C214.754 128.842 214.386 129.73 213.732 130.385C213.077 131.04 212.19 131.408 211.264 131.408Z" fill="#49CE91"/>
<path d="M185.962 167.199H148.01C147.084 167.199 146.197 166.831 145.542 166.177C144.888 165.522 144.52 164.634 144.52 163.707C144.52 162.781 144.888 161.893 145.542 161.238C146.197 160.583 147.084 160.216 148.01 160.216H185.962C186.888 160.216 187.776 160.583 188.43 161.238C189.085 161.893 189.452 162.781 189.452 163.707C189.452 164.634 189.085 165.522 188.43 166.177C187.776 166.831 186.888 167.199 185.962 167.199Z" fill="#2F9FDD"/>
<path d="M185.962 182.476H148.01C147.084 182.476 146.197 182.108 145.542 181.453C144.888 180.799 144.52 179.91 144.52 178.984C144.52 178.058 144.888 177.17 145.542 176.515C146.197 175.86 147.084 175.492 148.01 175.492H185.962C186.888 175.492 187.776 175.86 188.43 176.515C189.085 177.17 189.452 178.058 189.452 178.984C189.452 179.91 189.085 180.799 188.43 181.453C187.776 182.108 186.888 182.476 185.962 182.476Z" fill="#2F9FDD"/>
<path d="M185.962 197.753H148.01C147.084 197.753 146.197 197.385 145.542 196.73C144.888 196.076 144.52 195.187 144.52 194.261C144.52 193.335 144.888 192.447 145.542 191.792C146.197 191.137 147.084 190.769 148.01 190.769H185.962C186.888 190.769 187.776 191.137 188.43 191.792C189.085 192.447 189.452 193.335 189.452 194.261C189.452 195.187 189.085 196.076 188.43 196.73C187.776 197.385 186.888 197.753 185.962 197.753Z" fill="#2F9FDD"/>
<path d="M233.297 170.193C236.894 170.193 239.809 167.275 239.809 163.676C239.809 160.078 236.894 157.16 233.297 157.16C229.7 157.16 226.784 160.078 226.784 163.676C226.784 167.275 229.7 170.193 233.297 170.193Z" fill="#49CE91"/>
<path d="M232.651 166.162C232.505 166.163 232.362 166.115 232.245 166.027L232.238 166.022L230.707 164.85C230.564 164.74 230.47 164.578 230.447 164.399C230.423 164.22 230.472 164.039 230.581 163.896C230.691 163.753 230.853 163.659 231.032 163.635C231.211 163.612 231.392 163.66 231.535 163.77L232.526 164.531L234.869 161.473C234.923 161.402 234.991 161.342 235.068 161.298C235.146 161.253 235.231 161.224 235.319 161.212C235.408 161.2 235.498 161.206 235.584 161.229C235.67 161.252 235.751 161.292 235.822 161.347L235.808 161.367L235.823 161.347C235.966 161.457 236.059 161.619 236.083 161.798C236.106 161.977 236.058 162.158 235.949 162.301L233.193 165.896C233.129 165.979 233.047 166.046 232.953 166.092C232.86 166.138 232.757 166.162 232.652 166.161L232.651 166.162Z" fill="white"/>
<path d="M67.4415 33.2569C65.4394 33.2569 63.4823 32.6629 61.8176 31.5499C60.153 30.437 58.8555 28.8551 58.0894 27.0044C57.3232 25.1537 57.1228 23.1172 57.5134 21.1525C57.904 19.1877 58.8681 17.383 60.2837 15.9665C61.6994 14.5501 63.5031 13.5854 65.4667 13.1946C67.4303 12.8038 69.4657 13.0044 71.3153 13.771C73.165 14.5376 74.746 15.8358 75.8583 17.5014C76.9706 19.167 77.5642 21.1252 77.5642 23.1285C77.5612 25.8138 76.4937 28.3882 74.596 30.287C72.6983 32.1858 70.1253 33.2539 67.4415 33.2569ZM67.4415 13.873C65.612 13.873 63.8235 14.4158 62.3024 15.4328C60.7812 16.4498 59.5956 17.8954 58.8955 19.5866C58.1953 21.2778 58.0121 23.1388 58.3691 24.9341C58.726 26.7295 59.607 28.3787 60.9007 29.6731C62.1943 30.9675 63.8426 31.849 65.6369 32.2061C67.4313 32.5632 69.2912 32.3799 70.9815 31.6794C72.6717 30.9789 74.1164 29.7926 75.1328 28.2705C76.1493 26.7485 76.6918 24.959 76.6918 23.1285C76.689 20.6746 75.7135 18.322 73.9794 16.5869C72.2452 14.8517 69.894 13.8757 67.4415 13.873Z" fill="#49CE91"/>
<path d="M66.4817 26.8256C66.2637 26.826 66.0516 26.7554 65.8773 26.6246L65.8665 26.6165L63.59 24.8741C63.4846 24.7932 63.3961 24.6924 63.3296 24.5773C63.2631 24.4622 63.22 24.3351 63.2026 24.2033C63.1852 24.0716 63.1939 23.9376 63.2282 23.8092C63.2625 23.6808 63.3218 23.5604 63.4026 23.4549C63.4835 23.3494 63.5843 23.2609 63.6993 23.1944C63.8143 23.1279 63.9413 23.0847 64.073 23.0673C64.2047 23.0499 64.3386 23.0586 64.4669 23.093C64.5952 23.1273 64.7156 23.1866 64.821 23.2675L66.2955 24.3988L69.7798 19.8506C69.8606 19.7451 69.9614 19.6566 70.0764 19.5901C70.1913 19.5236 70.3183 19.4805 70.4499 19.4631C70.5816 19.4457 70.7154 19.4544 70.8437 19.4887C70.972 19.523 71.0922 19.5823 71.1976 19.6632L71.1763 19.6934L71.1985 19.6634C71.4111 19.8269 71.5502 20.0681 71.5853 20.3341C71.6203 20.6001 71.5485 20.8692 71.3855 21.0823L67.2872 26.4297C67.1924 26.5529 67.0705 26.6526 66.9309 26.721C66.7914 26.7895 66.638 26.8249 66.4825 26.8244L66.4817 26.8256Z" fill="#49CE91"/>
<path d="M131.654 68.6121C129.652 68.6121 127.694 68.0181 126.03 66.9051C124.365 65.7922 123.068 64.2103 122.302 62.3596C121.535 60.5089 121.335 58.4724 121.726 56.5076C122.116 54.5429 123.08 52.7382 124.496 51.3218C125.912 49.9053 127.715 48.9406 129.679 48.5498C131.643 48.159 133.678 48.3596 135.528 49.1262C137.377 49.8928 138.958 51.191 140.07 52.8566C141.183 54.5222 141.776 56.4805 141.776 58.4837C141.773 61.169 140.706 63.7435 138.808 65.6422C136.91 67.541 134.337 68.6091 131.654 68.6121ZM131.654 49.2282C129.824 49.2282 128.036 49.7711 126.514 50.7881C124.993 51.8051 123.808 53.2506 123.108 54.9418C122.407 56.633 122.224 58.494 122.581 60.2894C122.938 62.0848 123.819 63.7339 125.113 65.0283C126.407 66.3227 128.055 67.2042 129.849 67.5613C131.643 67.9184 133.503 67.7351 135.194 67.0346C136.884 66.3341 138.329 65.1478 139.345 63.6257C140.361 62.1037 140.904 60.3142 140.904 58.4837C140.901 56.0298 139.926 53.6772 138.191 51.9421C136.457 50.2069 134.106 49.2309 131.654 49.2282Z" fill="#49CE91"/>
<path d="M130.694 62.1808C130.476 62.1812 130.264 62.1107 130.089 61.9799L130.079 61.9717L127.802 60.2293C127.589 60.066 127.45 59.8247 127.415 59.5586C127.38 59.2924 127.452 59.0232 127.615 58.8102C127.778 58.5971 128.019 58.4577 128.285 58.4225C128.551 58.3874 128.82 58.4594 129.033 58.6227L130.508 59.7541L133.992 55.2058C134.073 55.1003 134.174 55.0118 134.289 54.9453C134.404 54.8789 134.53 54.8357 134.662 54.8183C134.794 54.8009 134.928 54.8096 135.056 54.8439C135.184 54.8783 135.304 54.9376 135.41 55.0184L135.388 55.0487L135.411 55.0186C135.623 55.1821 135.762 55.4233 135.797 55.6893C135.833 55.9554 135.761 56.2244 135.598 56.4375L131.499 61.7849C131.405 61.9081 131.283 62.0078 131.143 62.0763C131.004 62.1447 130.85 62.1801 130.695 62.1796L130.694 62.1808Z" fill="#49CE91"/>
<path d="M233.297 185.47C236.894 185.47 239.809 182.552 239.809 178.953C239.809 175.354 236.894 172.437 233.297 172.437C229.7 172.437 226.784 175.354 226.784 178.953C226.784 182.552 229.7 185.47 233.297 185.47Z" fill="#49CE91"/>
<path d="M232.651 181.439C232.505 181.439 232.362 181.392 232.245 181.304L232.238 181.299L230.707 180.127C230.636 180.073 230.577 180.005 230.532 179.928C230.488 179.85 230.458 179.765 230.447 179.676C230.435 179.588 230.441 179.497 230.464 179.411C230.487 179.325 230.527 179.244 230.581 179.173C230.636 179.102 230.703 179.042 230.781 178.998C230.858 178.953 230.943 178.924 231.032 178.912C231.121 178.901 231.211 178.906 231.297 178.93C231.383 178.953 231.464 178.993 231.535 179.047L232.526 179.808L234.869 176.75C234.923 176.679 234.991 176.619 235.068 176.574C235.146 176.53 235.231 176.501 235.319 176.489C235.408 176.477 235.498 176.483 235.584 176.506C235.67 176.529 235.751 176.569 235.822 176.624L235.808 176.644L235.823 176.624C235.966 176.734 236.059 176.896 236.083 177.075C236.106 177.254 236.058 177.434 235.949 177.578L233.193 181.173C233.129 181.256 233.047 181.323 232.953 181.369C232.86 181.415 232.757 181.439 232.652 181.438L232.651 181.439Z" fill="white"/>
<path d="M233.297 200.778C236.894 200.778 239.809 197.86 239.809 194.261C239.809 190.662 236.894 187.745 233.297 187.745C229.7 187.745 226.784 190.662 226.784 194.261C226.784 197.86 229.7 200.778 233.297 200.778Z" fill="#49CE91"/>
<path d="M232.652 196.747C232.505 196.747 232.362 196.7 232.245 196.612L232.238 196.607L230.707 195.435C230.564 195.325 230.471 195.163 230.447 194.984C230.424 194.805 230.472 194.624 230.582 194.481C230.692 194.338 230.854 194.244 231.032 194.221C231.211 194.197 231.392 194.245 231.535 194.355L232.526 195.116L234.869 192.058C234.923 191.987 234.991 191.927 235.068 191.882C235.146 191.838 235.231 191.809 235.32 191.797C235.408 191.785 235.498 191.791 235.584 191.814C235.671 191.837 235.751 191.877 235.822 191.932L235.808 191.952L235.823 191.932C235.966 192.042 236.059 192.204 236.083 192.383C236.107 192.561 236.058 192.742 235.949 192.886L233.193 196.481C233.129 196.564 233.047 196.631 232.954 196.677C232.86 196.723 232.757 196.747 232.652 196.746L232.652 196.747Z" fill="white"/>
<path d="M192.298 96.9837C185.427 96.8665 182.305 91.6508 182.305 86.8544C182.306 82.058 185.428 76.843 192.283 76.7268H192.298C199.154 76.8438 202.276 82.0595 202.276 86.8559C202.276 91.6523 199.153 96.8675 192.298 96.9837ZM192.291 77.5998C186.03 77.7093 183.178 82.4731 183.178 86.8544C183.178 91.2376 186.031 96.0037 192.298 96.1107C198.549 96.0046 201.403 91.2389 201.403 86.8559C201.404 82.4746 198.552 77.7108 192.291 77.5998Z" fill="#49CE91"/>
<path d="M194.563 87.4053C196.314 90.4491 191.507 91.6379 189.668 89.8043L190.129 88.8194C193.119 91.4036 195.753 86.9275 191.186 87.3529V86.2738C195.368 86.6113 193.019 82.3993 190.233 84.891L189.783 83.9064C192.053 81.5487 197.151 84.3996 193.552 86.7557C193.954 86.8496 194.31 87.079 194.563 87.4053Z" fill="#49CE91"/>
<path d="M253.8 68.6121C251.798 68.6121 249.841 68.0181 248.176 66.9051C246.511 65.7922 245.214 64.2103 244.448 62.3596C243.682 60.5089 243.481 58.4724 243.872 56.5076C244.262 54.5429 245.226 52.7382 246.642 51.3218C248.058 49.9053 249.862 48.9406 251.825 48.5498C253.789 48.159 255.824 48.3596 257.674 49.1262C259.523 49.8928 261.104 51.191 262.217 52.8566C263.329 54.5222 263.923 56.4805 263.923 58.4837C263.92 61.169 262.852 63.7435 260.954 65.6422C259.057 67.541 256.484 68.6091 253.8 68.6121ZM253.8 49.2282C251.97 49.2282 250.182 49.7711 248.661 50.7881C247.14 51.8051 245.954 53.2506 245.254 54.9418C244.554 56.633 244.371 58.494 244.727 60.2894C245.084 62.0848 245.965 63.7339 247.259 65.0283C248.553 66.3227 250.201 67.2042 251.995 67.5613C253.79 67.9184 255.65 67.7351 257.34 67.0346C259.03 66.3341 260.475 65.1478 261.491 63.6257C262.508 62.1037 263.05 60.3142 263.05 58.4837C263.047 56.0298 262.072 53.6772 260.338 51.9421C258.604 50.2069 256.252 49.2309 253.8 49.2282Z" fill="#49CE91"/>
<path d="M256.611 60.7569H255.553V62.213H254.234V60.7569H250.989V59.7512L254.475 54.7544H255.553V59.6989H256.611V60.7569ZM254.234 59.6989V56.8599L252.266 59.6989H254.234Z" fill="#49CE91"/>
<path d="M317.318 33.2569C315.316 33.2569 313.359 32.6628 311.695 31.5499C310.03 30.437 308.732 28.8551 307.966 27.0044C307.2 25.1536 307 23.1171 307.39 21.1524C307.781 19.1877 308.745 17.383 310.161 15.9665C311.576 14.55 313.38 13.5854 315.344 13.1946C317.307 12.8038 319.343 13.0044 321.192 13.771C323.042 14.5376 324.623 15.8358 325.735 17.5014C326.847 19.167 327.441 21.1252 327.441 23.1285C327.438 25.8138 326.371 28.3882 324.473 30.287C322.575 32.1858 320.002 33.2539 317.318 33.2569ZM317.318 13.873C315.489 13.873 313.7 14.4158 312.179 15.4329C310.658 16.4499 309.472 17.8954 308.772 19.5866C308.072 21.2778 307.889 23.1388 308.246 24.9342C308.603 26.7296 309.484 28.3787 310.778 29.6731C312.071 30.9675 313.72 31.849 315.514 32.2061C317.308 32.5632 319.168 32.3799 320.858 31.6794C322.549 30.9789 323.993 29.7926 325.01 28.2705C326.026 26.7485 326.569 24.959 326.569 23.1285C326.566 20.6746 325.59 18.322 323.856 16.5869C322.122 14.8517 319.771 13.8757 317.318 13.873Z" fill="#49CE91"/>
<path d="M318.826 22.348C319.177 22.5418 319.464 22.8328 319.653 23.186C319.854 23.5684 319.955 23.9954 319.946 24.4273C319.955 24.8812 319.839 25.3288 319.611 25.7212C319.383 26.0995 319.047 26.4019 318.648 26.5905C318.193 26.8044 317.695 26.9102 317.193 26.8995C316.722 26.8991 316.255 26.8194 315.811 26.6638C315.398 26.5305 315.017 26.3149 314.69 26.0302L315.141 25.0453C315.725 25.5286 316.455 25.8016 317.214 25.8207C317.603 25.8474 317.988 25.7215 318.287 25.4697C318.528 25.1938 318.66 24.8392 318.658 24.4725C318.657 24.1059 318.521 23.7526 318.276 23.4793C318.139 23.3525 317.979 23.2543 317.803 23.1904C317.628 23.1265 317.442 23.0983 317.255 23.1074C316.972 23.1056 316.69 23.1608 316.428 23.2698C316.17 23.3781 315.938 23.5406 315.748 23.7464H314.931V19.3572H319.601V20.4047H316.25V22.4369C316.647 22.1729 317.115 22.0376 317.591 22.0494C318.021 22.0403 318.447 22.1432 318.826 22.348Z" fill="#49CE91"/>
<path d="M79.6477 240.343C79.3829 239.759 79.2494 239.123 79.2566 238.482C79.2638 237.84 79.4115 237.208 79.6894 236.629C79.9672 236.051 80.3684 235.541 80.8646 235.134C81.3609 234.728 81.9402 234.435 82.5617 234.277L83.8842 218.736L90.2442 223.756L88.0133 237.745C88.2097 238.807 88.0097 239.904 87.4514 240.829C86.8931 241.754 86.0152 242.441 84.984 242.762C83.9528 243.082 82.84 243.013 81.8565 242.567C80.873 242.121 80.0871 241.33 79.6477 240.343Z" fill="#FFB8B8"/>
<path d="M83.7382 232.646C83.2805 232.585 82.8589 232.365 82.5474 232.024C82.2359 231.683 82.0546 231.243 82.0353 230.782L81.299 213.145C81.0344 206.806 82.3238 200.498 85.0549 194.772L91.5844 181.082C92.0218 180.258 92.6492 179.551 93.4145 179.019C94.1799 178.487 95.061 178.145 95.9848 178.022C96.8815 177.896 97.7954 177.988 98.6487 178.291C99.5021 178.595 100.27 179.1 100.886 179.764C101.198 180.098 101.479 180.46 101.725 180.847C102.217 181.646 102.503 182.556 102.555 183.494C102.607 184.432 102.424 185.368 102.022 186.217L92.01 213.585L91.2397 231.414C91.228 231.684 91.1607 231.949 91.042 232.192C90.9233 232.435 90.7557 232.651 90.5498 232.826C90.3439 233.001 90.104 233.132 89.8453 233.21C89.5866 233.288 89.3145 233.312 89.0461 233.28L83.7642 232.649L83.7382 232.646Z" fill="#49CE91"/>
<path d="M65.0059 309.706L69.9031 311.857L80.5245 293.98L73.297 290.806L65.0059 309.706Z" fill="#FFB8B8"/>
<path d="M64.4583 307.557L74.1026 311.793C74.9097 312.148 75.6395 312.658 76.2496 313.294C76.8597 313.931 77.3385 314.681 77.6587 315.503C77.9788 316.325 78.1341 317.202 78.1157 318.083C78.0972 318.965 77.9053 319.835 77.551 320.642L77.4633 320.842L61.6729 313.907L64.4583 307.557Z" fill="#2F2E41"/>
<path d="M130.752 315.655H136.1L138.644 295.014L130.751 295.014L130.752 315.655Z" fill="#FFB8B8"/>
<path d="M129.388 313.908L139.92 313.907C140.802 313.907 141.675 314.081 142.489 314.418C143.304 314.756 144.043 315.251 144.667 315.874C145.29 316.498 145.784 317.238 146.122 318.053C146.459 318.868 146.633 319.741 146.633 320.623V320.841L129.388 320.842L129.388 313.908Z" fill="#2F2E41"/>
<path d="M76.8846 309.786C76.6789 309.786 76.4745 309.754 76.2788 309.691L67.2105 306.774C66.7207 306.614 66.3129 306.269 66.0743 305.812C65.8357 305.356 65.7853 304.823 65.9338 304.33L96.0059 208.515L118.531 204.095L118.61 204.224C133.502 228.47 138.473 265.508 141.626 304.75C141.665 305.263 141.502 305.77 141.173 306.165C140.844 306.559 140.374 306.81 139.864 306.864L129.95 307.855C129.487 307.904 129.022 307.786 128.639 307.522C128.256 307.258 127.98 306.866 127.86 306.416L109.707 242.162C109.672 242.031 109.596 241.915 109.491 241.828C109.387 241.742 109.258 241.691 109.122 241.681C108.987 241.672 108.852 241.704 108.736 241.775C108.62 241.845 108.529 241.95 108.475 242.075L78.6821 308.598C78.5317 308.951 78.2811 309.251 77.9616 309.462C77.642 309.674 77.2675 309.786 76.8846 309.786Z" fill="#2F2E41"/>
<path d="M107.644 170.148C113.561 170.148 118.358 165.348 118.358 159.427C118.358 153.506 113.561 148.707 107.644 148.707C101.726 148.707 96.9292 153.506 96.9292 159.427C96.9292 165.348 101.726 170.148 107.644 170.148Z" fill="#FFB8B8"/>
<path d="M94.0898 211.352L94.0163 211.198C93.9665 211.094 89.0301 200.616 89.4894 188.53C89.6415 184.563 91.3029 180.804 94.1337 178.022C96.9646 175.24 100.751 173.646 104.718 173.566C108.374 173.494 111.937 174.716 114.782 177.015C117.626 179.315 119.568 182.544 120.266 186.136C121.641 193.163 121.607 199.818 120.163 205.917L120.131 206.052L119.995 206.08L94.0898 211.352Z" fill="#49CE91"/>
<path d="M148.717 226.476C148.083 226.382 147.476 226.15 146.941 225.796C146.406 225.443 145.955 224.976 145.619 224.429C145.284 223.882 145.073 223.269 145 222.631C144.927 221.993 144.995 221.348 145.199 220.739L132.858 211.21L140.52 208.579L151.065 218.032C152.064 218.442 152.877 219.205 153.352 220.175C153.826 221.146 153.929 222.256 153.639 223.297C153.35 224.338 152.689 225.236 151.782 225.822C150.874 226.408 149.784 226.641 148.717 226.476Z" fill="#FFB8B8"/>
<path d="M118.432 205.467L118.403 205.421L105.393 184.339C104.939 183.525 104.684 182.615 104.652 181.683C104.619 180.751 104.809 179.825 105.206 178.981C105.586 178.159 106.158 177.44 106.875 176.886C107.592 176.333 108.432 175.961 109.324 175.802C109.774 175.72 110.23 175.68 110.688 175.683C111.626 175.702 112.545 175.955 113.362 176.419C114.178 176.883 114.865 177.544 115.361 178.341L132.931 201.585L147.494 211.89C147.714 212.046 147.9 212.246 148.04 212.477C148.18 212.709 148.27 212.966 148.306 213.234C148.342 213.503 148.322 213.775 148.247 214.035C148.172 214.295 148.045 214.537 147.873 214.745L144.483 218.846C144.186 219.207 143.771 219.45 143.311 219.531C142.852 219.612 142.378 219.526 141.976 219.289L118.432 205.467Z" fill="#49CE91"/>
<path d="M105.728 158.762C106.517 157.462 108.26 157.095 109.773 157.243C111.286 157.392 112.757 157.924 114.277 157.912C118.499 157.879 121.757 152.732 119.982 148.899C118.527 145.757 114.892 144.377 111.604 143.293C104.709 141.022 96.7896 138.84 90.5334 142.523C88.5397 143.731 86.9046 145.45 85.7968 147.502C84.6891 149.553 84.1489 151.864 84.2321 154.195C84.3728 157.093 85.482 160.069 84.5439 162.815C83.4617 165.982 80.0303 167.681 76.7876 168.503C71.1031 169.944 65.1097 169.712 59.3897 171.004C53.6697 172.296 47.8083 175.728 46.2664 181.389C45.2537 185.107 46.3104 189.11 48.0605 192.543C49.8461 196.046 52.3274 199.147 55.3527 201.657C58.3779 204.166 61.8833 206.031 65.6542 207.138C69.4251 208.245 73.3821 208.57 77.2828 208.093C81.1835 207.616 84.9459 206.347 88.3395 204.364C95.2546 200.324 100.247 193.496 103.223 186.058C104.911 181.719 106.099 177.202 106.765 172.594C107.431 168.28 106.866 163.921 105.658 159.727C105.601 159.57 105.578 159.403 105.59 159.237C105.602 159.071 105.649 158.909 105.728 158.762Z" fill="#2F2E41"/>
</g>
<defs>
<clipPath id="clip0_0_1">
<rect width="375" height="812" fill="white" transform="translate(0 -207)"/>
</clipPath>
</defs>
</svg>
