<svg width="782" height="593" viewBox="0 0 782 593" fill="none" xmlns="http://www.w3.org/2000/svg">
<rect width="782" height="593" fill="#F5F5F5"/>
<rect width="1440" height="1160" transform="translate(-334 -240)" fill="white"/>
<g filter="url(#filter0_d_0_1)">
<path d="M-160 -98C-160 -142.735 -123.735 -179 -79 -179H383.702H861C905.735 -179 942 -142.735 942 -98V738C942 782.735 905.735 819 861 819H-79C-123.735 819 -160 782.735 -160 738V-98Z" fill="white"/>
</g>
<rect width="782" height="593" fill="#49CE91" fill-opacity="0.05"/>
<path d="M186.807 217.162C184.877 217.162 183.026 217.81 181.661 218.963C180.296 220.116 179.529 221.681 179.529 223.312C179.529 224.942 180.296 226.507 181.661 227.66C183.026 228.813 184.877 229.461 186.807 229.461H278.286V226.778C278.286 224.872 278.846 222.995 279.916 221.317C280.986 219.638 282.533 218.211 284.417 217.162H186.807Z" fill="#2F9FDD"/>
<path d="M270.048 203.325H239.118C237.188 203.325 235.337 202.678 233.972 201.524C232.608 200.371 231.841 198.807 231.841 197.176C231.841 195.545 232.608 193.981 233.972 192.828C235.337 191.674 237.188 191.026 239.118 191.026H270.048C271.978 191.026 273.829 191.674 275.194 192.828C276.559 193.981 277.326 195.545 277.326 197.176C277.326 198.807 276.559 200.371 275.194 201.524C273.829 202.678 271.978 203.325 270.048 203.325Z" fill="#2F9FDD"/>
<path d="M200.679 159.51H80.5989C78.6688 159.51 76.8177 158.862 75.4529 157.709C74.088 156.556 73.3213 154.992 73.3213 153.361C73.3213 151.73 74.088 150.165 75.4529 149.012C76.8177 147.859 78.6688 147.211 80.5989 147.211H200.679C202.609 147.211 204.46 147.859 205.825 149.012C207.19 150.165 207.957 151.73 207.957 153.361C207.957 154.992 207.19 156.556 205.825 157.709C204.46 158.862 202.609 159.51 200.679 159.51Z" fill="#2F9FDD"/>
<path d="M148.372 133.375H132.907C130.977 133.375 129.126 132.727 127.761 131.574C126.397 130.421 125.63 128.856 125.63 127.225C125.63 125.594 126.397 124.03 127.761 122.877C129.126 121.724 130.977 121.076 132.907 121.076H148.372C150.302 121.076 152.154 121.724 153.518 122.877C154.883 124.03 155.65 125.594 155.65 127.225C155.65 128.856 154.883 130.421 153.518 131.574C152.154 132.727 150.302 133.375 148.372 133.375Z" fill="#2F9FDD"/>
<path d="M277.371 340.84H164.17C160.07 340.836 156.139 339.458 153.24 337.008C150.341 334.558 148.71 331.237 148.705 327.772V176.464C148.71 172.999 150.341 169.677 153.24 167.228C156.139 164.778 160.07 163.4 164.17 163.396H344.994C349.094 163.4 353.025 164.778 355.924 167.228C358.824 169.677 360.454 172.999 360.459 176.464V213.966H358.64V176.464C358.635 173.407 357.196 170.476 354.638 168.314C352.08 166.153 348.612 164.937 344.994 164.933H164.17C160.552 164.937 157.084 166.153 154.526 168.314C151.968 170.476 150.529 173.407 150.525 176.464V327.772C150.529 330.829 151.968 333.76 154.526 335.922C157.084 338.083 160.552 339.299 164.17 339.303H277.371V340.84Z" fill="#49CE91"/>
<path d="M149.614 250.261H67.0957C62.9956 250.257 59.0648 248.879 56.1655 246.429C53.2663 243.979 51.6355 240.658 51.6309 237.193V114.158C51.6355 110.693 53.2663 107.372 56.1655 104.922C59.0648 102.472 62.9956 101.094 67.0957 101.09H214.177C218.277 101.094 222.208 102.472 225.107 104.922C228.006 107.372 229.637 110.693 229.642 114.158V164.165H227.822V114.158C227.818 111.101 226.379 108.17 223.821 106.008C221.263 103.847 217.795 102.631 214.177 102.627H67.0957C63.478 102.631 60.0096 103.847 57.4515 106.008C54.8933 108.17 53.4543 111.101 53.4503 114.158V237.193C53.4543 240.25 54.8933 243.181 57.4515 245.342C60.0096 247.504 63.478 248.72 67.0957 248.723H149.614V250.261Z" fill="#49CE91"/>
<path d="M517.936 217.162C519.82 218.211 521.367 219.638 522.437 221.317C523.507 222.995 524.067 224.872 524.067 226.778V229.461H615.546C617.476 229.461 619.327 228.813 620.692 227.66C622.057 226.507 622.824 224.942 622.824 223.312C622.824 221.681 622.057 220.116 620.692 218.963C619.327 217.81 617.476 217.162 615.546 217.162H517.936Z" fill="#2F9FDD"/>
<path d="M525.028 197.176C525.031 195.546 525.798 193.982 527.162 192.83C528.527 191.677 530.376 191.028 532.306 191.026H563.236C565.166 191.026 567.017 191.674 568.382 192.828C569.747 193.981 570.513 195.545 570.513 197.176C570.513 198.807 569.747 200.371 568.382 201.524C567.017 202.678 565.166 203.325 563.236 203.325H532.306C530.376 203.324 528.527 202.675 527.162 201.522C525.798 200.369 525.031 198.806 525.028 197.176Z" fill="#2F9FDD"/>
<path d="M594.397 153.361C594.4 151.73 595.167 150.167 596.531 149.014C597.896 147.861 599.746 147.213 601.675 147.211H721.755C723.685 147.211 725.536 147.859 726.901 149.012C728.266 150.165 729.033 151.73 729.033 153.361C729.033 154.992 728.266 156.556 726.901 157.709C725.536 158.862 723.685 159.51 721.755 159.51H601.675C599.746 159.508 597.896 158.86 596.531 157.707C595.167 156.554 594.4 154.991 594.397 153.361Z" fill="#2F9FDD"/>
<path d="M646.704 127.225C646.706 125.595 647.474 124.032 648.838 122.879C650.202 121.726 652.052 121.078 653.982 121.076H669.447C671.377 121.076 673.228 121.724 674.593 122.877C675.957 124.03 676.724 125.594 676.724 127.225C676.724 128.856 675.957 130.421 674.593 131.574C673.228 132.727 671.377 133.375 669.447 133.375H653.982C652.052 133.373 650.202 132.725 648.838 131.572C647.474 130.419 646.706 128.856 646.704 127.225Z" fill="#2F9FDD"/>
<path d="M524.981 340.84H638.182C642.282 340.836 646.213 339.458 649.112 337.008C652.011 334.558 653.642 331.237 653.646 327.772V176.464C653.642 172.999 652.011 169.677 649.112 167.228C646.213 164.778 642.282 163.4 638.182 163.396H457.357C453.257 163.4 449.326 164.778 446.427 167.228C443.528 169.677 441.897 172.999 441.893 176.464V213.966H443.712V176.464C443.716 173.407 445.155 170.476 447.713 168.314C450.271 166.153 453.74 164.937 457.357 164.933H638.182C641.799 164.937 645.268 166.153 647.826 168.314C650.384 170.476 651.823 173.407 651.827 176.464V327.772C651.823 330.829 650.384 333.76 647.826 335.922C645.268 338.083 641.799 339.299 638.182 339.303H524.981V340.84Z" fill="#49CE91"/>
<path d="M652.737 250.261H735.255C739.355 250.257 743.286 248.879 746.185 246.429C749.085 243.979 750.715 240.658 750.72 237.193V114.158C750.715 110.693 749.085 107.372 746.185 104.922C743.286 102.472 739.355 101.094 735.255 101.09H588.174C584.074 101.094 580.143 102.472 577.244 104.922C574.344 107.372 572.714 110.693 572.709 114.158V164.165H574.528V114.158C574.532 111.101 575.971 108.17 578.53 106.008C581.088 103.847 584.556 102.631 588.174 102.627H735.255C738.873 102.631 742.341 103.847 744.899 106.008C747.458 108.17 748.897 111.101 748.901 114.158V237.193C748.897 240.25 747.458 243.181 744.899 245.342C742.341 247.504 738.873 248.72 735.255 248.723H652.737V250.261Z" fill="#49CE91"/>
<path d="M510.04 213.711H291.931C287.832 213.717 283.903 215.096 281.004 217.546C278.106 219.995 276.474 223.315 276.466 226.778V409.334C276.47 412.799 278.101 416.121 281 418.57C283.899 421.02 287.83 422.398 291.931 422.402H510.04C514.14 422.398 518.071 421.02 520.97 418.57C523.87 416.121 525.5 412.799 525.505 409.334V226.778C525.5 223.314 523.87 219.992 520.97 217.542C518.071 215.092 514.14 213.714 510.04 213.711ZM523.685 409.334C523.681 412.391 522.242 415.322 519.684 417.483C517.126 419.645 513.657 420.861 510.04 420.865H291.931C288.313 420.861 284.845 419.645 282.287 417.483C279.729 415.322 278.29 412.391 278.285 409.334V226.778C278.291 223.722 279.73 220.792 282.288 218.63C284.846 216.469 288.313 215.253 291.931 215.248H510.04C513.657 215.252 517.126 216.468 519.684 218.629C522.242 220.791 523.681 223.721 523.685 226.778V409.334Z" fill="#26B171"/>
<path d="M492.864 284.807H309.105C307.175 284.807 305.324 284.159 303.959 283.006C302.594 281.852 301.827 280.288 301.827 278.657C301.827 277.026 302.594 275.462 303.959 274.309C305.324 273.156 307.175 272.508 309.105 272.508H492.864C494.794 272.508 496.645 273.156 498.01 274.309C499.375 275.462 500.141 277.026 500.141 278.657C500.141 280.288 499.375 281.852 498.01 283.006C496.645 284.159 494.794 284.807 492.864 284.807Z" fill="#2F9FDD"/>
<path d="M440.558 258.671H361.414C359.484 258.671 357.633 258.023 356.268 256.87C354.903 255.717 354.137 254.153 354.137 252.522C354.137 250.891 354.903 249.327 356.268 248.173C357.633 247.02 359.484 246.372 361.414 246.372H440.558C442.488 246.372 444.339 247.02 445.704 248.173C447.069 249.327 447.836 250.891 447.836 252.522C447.836 254.153 447.069 255.717 445.704 256.87C444.339 258.023 442.488 258.671 440.558 258.671Z" fill="#49CE91"/>
<path d="M387.792 321.704H308.649C306.719 321.704 304.867 321.056 303.503 319.903C302.138 318.749 301.371 317.185 301.371 315.554C301.371 313.923 302.138 312.359 303.503 311.206C304.867 310.053 306.719 309.405 308.649 309.405H387.792C389.723 309.405 391.574 310.053 392.938 311.206C394.303 312.359 395.07 313.923 395.07 315.554C395.07 317.185 394.303 318.749 392.938 319.903C391.574 321.056 389.723 321.704 387.792 321.704Z" fill="#2F9FDD"/>
<path d="M387.792 348.608H308.649C306.719 348.608 304.867 347.96 303.503 346.807C302.138 345.653 301.371 344.089 301.371 342.458C301.371 340.827 302.138 339.263 303.503 338.11C304.867 336.957 306.719 336.309 308.649 336.309H387.792C389.723 336.309 391.574 336.957 392.938 338.11C394.303 339.263 395.07 340.827 395.07 342.458C395.07 344.089 394.303 345.653 392.938 346.807C391.574 347.96 389.723 348.608 387.792 348.608Z" fill="#2F9FDD"/>
<path d="M387.792 375.512H308.649C306.719 375.512 304.867 374.864 303.503 373.711C302.138 372.557 301.371 370.993 301.371 369.362C301.371 367.731 302.138 366.167 303.503 365.014C304.867 363.861 306.719 363.213 308.649 363.213H387.792C389.723 363.213 391.574 363.861 392.938 365.014C394.303 366.167 395.07 367.731 395.07 369.362C395.07 370.993 394.303 372.557 392.938 373.711C391.574 374.864 389.723 375.512 387.792 375.512Z" fill="#2F9FDD"/>
<path d="M486.501 326.976C494.002 326.976 500.082 321.838 500.082 315.5C500.082 309.162 494.002 304.024 486.501 304.024C479 304.024 472.92 309.162 472.92 315.5C472.92 321.838 479 326.976 486.501 326.976Z" fill="#49CE91"/>
<path d="M485.158 319.877C484.852 319.878 484.555 319.794 484.31 319.639L484.295 319.63L481.103 317.567C480.805 317.373 480.609 317.088 480.56 316.773C480.511 316.457 480.612 316.139 480.841 315.886C481.069 315.634 481.408 315.469 481.78 315.427C482.153 315.386 482.531 315.471 482.829 315.664L484.897 317.004L489.782 311.619C489.895 311.494 490.036 311.389 490.198 311.31C490.359 311.232 490.537 311.18 490.721 311.16C490.906 311.139 491.093 311.149 491.273 311.19C491.453 311.231 491.622 311.301 491.77 311.397L491.74 311.433L491.771 311.397C492.069 311.591 492.264 311.876 492.313 312.191C492.362 312.506 492.262 312.825 492.033 313.077L486.287 319.409C486.154 319.554 485.983 319.673 485.787 319.754C485.592 319.835 485.377 319.876 485.159 319.876L485.158 319.877Z" fill="white"/>
<path d="M140.638 85.819C136.463 85.8189 132.382 84.7728 128.911 82.8128C125.439 80.8528 122.734 78.0671 121.136 74.8077C119.538 71.5484 119.12 67.962 119.935 64.5019C120.749 61.0419 122.76 57.8636 125.712 55.3691C128.664 52.8745 132.426 51.1757 136.52 50.4875C140.615 49.7992 144.859 50.1524 148.717 51.5025C152.574 52.8525 155.871 55.1388 158.19 58.0721C160.51 61.0054 161.748 64.454 161.748 67.9818C161.741 72.7109 159.515 77.2447 155.558 80.5887C151.6 83.9326 146.235 85.8136 140.638 85.819ZM140.638 51.6821C136.823 51.6821 133.094 52.6381 129.922 54.4291C126.749 56.2202 124.277 58.7659 122.817 61.7443C121.357 64.7227 120.975 68 121.719 71.1618C122.464 74.3236 124.301 77.228 126.999 79.5075C129.696 81.7871 133.133 83.3395 136.875 83.9684C140.617 84.5973 144.496 84.2745 148.02 83.0408C151.545 81.8071 154.558 79.718 156.677 77.0375C158.797 74.357 159.928 71.2056 159.928 67.9818C159.922 63.6604 157.888 59.5173 154.272 56.4615C150.656 53.4058 145.753 51.687 140.638 51.6821Z" fill="#49CE91"/>
<path d="M138.634 74.4928C138.18 74.4935 137.738 74.3692 137.374 74.1389L137.352 74.1246L132.604 71.056C132.385 70.9136 132.2 70.736 132.061 70.5333C131.923 70.3306 131.833 70.1068 131.796 69.8748C131.76 69.6427 131.778 69.4068 131.85 69.1807C131.922 68.9546 132.045 68.7425 132.214 68.5568C132.382 68.371 132.592 68.2151 132.832 68.0979C133.072 67.9808 133.337 67.9047 133.612 67.8741C133.886 67.8434 134.165 67.8588 134.433 67.9193C134.701 67.9798 134.952 68.0842 135.171 68.2266L138.246 70.2191L145.512 62.2091C145.681 62.0234 145.891 61.8676 146.131 61.7505C146.37 61.6334 146.635 61.5573 146.91 61.5267C147.184 61.4961 147.463 61.5114 147.731 61.5719C147.998 61.6323 148.249 61.7367 148.469 61.8791L148.424 61.9324L148.471 61.8795C148.914 62.1675 149.204 62.5923 149.277 63.0607C149.35 63.5292 149.201 64.003 148.861 64.3783L140.314 73.7955C140.117 74.0125 139.862 74.1881 139.571 74.3086C139.28 74.4292 138.96 74.4915 138.636 74.4907L138.634 74.4928Z" fill="#49CE91"/>
<path d="M274.542 148.083C270.367 148.083 266.285 147.037 262.814 145.077C259.343 143.117 256.637 140.331 255.039 137.071C253.442 133.812 253.024 130.226 253.838 126.766C254.653 123.306 256.663 120.127 259.615 117.633C262.568 115.138 266.329 113.439 270.424 112.751C274.518 112.063 278.763 112.416 282.62 113.766C286.477 115.116 289.774 117.403 292.093 120.336C294.413 123.269 295.651 126.718 295.651 130.246C295.645 134.975 293.419 139.509 289.461 142.853C285.504 146.196 280.138 148.077 274.542 148.083ZM274.542 113.946C270.726 113.946 266.997 114.902 263.825 116.693C260.653 118.484 258.18 121.03 256.72 124.008C255.26 126.986 254.878 130.264 255.623 133.426C256.367 136.587 258.204 139.492 260.902 141.771C263.6 144.051 267.037 145.603 270.779 146.232C274.52 146.861 278.399 146.538 281.924 145.305C285.448 144.071 288.461 141.982 290.581 139.301C292.7 136.621 293.832 133.469 293.832 130.246C293.826 125.924 291.792 121.781 288.175 118.725C284.559 115.67 279.656 113.951 274.542 113.946Z" fill="#49CE91"/>
<path d="M272.542 136.757C272.087 136.757 271.645 136.633 271.281 136.403L271.259 136.388L266.512 133.32C266.068 133.032 265.777 132.607 265.704 132.139C265.63 131.67 265.781 131.196 266.121 130.821C266.461 130.445 266.964 130.2 267.519 130.138C268.074 130.076 268.635 130.203 269.079 130.49L272.154 132.483L279.42 124.473C279.588 124.287 279.798 124.131 280.038 124.014C280.278 123.897 280.542 123.821 280.817 123.79C281.091 123.76 281.37 123.775 281.638 123.836C281.905 123.896 282.156 124.001 282.376 124.143L282.332 124.196L282.378 124.143C282.821 124.431 283.111 124.856 283.184 125.325C283.258 125.793 283.108 126.267 282.768 126.642L274.222 136.059C274.024 136.276 273.77 136.452 273.479 136.572C273.188 136.693 272.868 136.755 272.544 136.754L272.542 136.757Z" fill="#49CE91"/>
<path d="M486.501 353.879C494.002 353.879 500.082 348.742 500.082 342.404C500.082 336.066 494.002 330.928 486.501 330.928C479 330.928 472.92 336.066 472.92 342.404C472.92 348.742 479 353.879 486.501 353.879Z" fill="#49CE91"/>
<path d="M485.158 346.781C484.852 346.782 484.555 346.698 484.31 346.543L484.295 346.534L481.103 344.471C480.955 344.375 480.831 344.256 480.738 344.119C480.645 343.983 480.584 343.833 480.56 343.677C480.536 343.52 480.548 343.362 480.596 343.21C480.644 343.058 480.727 342.915 480.841 342.79C480.954 342.665 481.095 342.561 481.257 342.482C481.418 342.403 481.596 342.352 481.78 342.331C481.965 342.311 482.153 342.321 482.333 342.362C482.513 342.402 482.681 342.473 482.829 342.568L484.897 343.908L489.782 338.523C489.895 338.398 490.036 338.293 490.198 338.214C490.359 338.135 490.537 338.084 490.721 338.064C490.906 338.043 491.093 338.053 491.273 338.094C491.453 338.135 491.622 338.205 491.77 338.301L491.74 338.337L491.771 338.301C492.069 338.495 492.264 338.78 492.313 339.095C492.362 339.41 492.262 339.729 492.033 339.981L486.287 346.313C486.154 346.458 485.983 346.576 485.787 346.658C485.592 346.739 485.377 346.78 485.159 346.78L485.158 346.781Z" fill="white"/>
<path d="M486.501 380.838C494.002 380.838 500.082 375.7 500.082 369.362C500.082 363.024 494.002 357.887 486.501 357.887C479 357.887 472.92 363.024 472.92 369.362C472.92 375.7 479 380.838 486.501 380.838Z" fill="#49CE91"/>
<path d="M485.156 373.74C484.851 373.741 484.553 373.657 484.309 373.502L484.294 373.493L481.102 371.429C480.804 371.236 480.609 370.95 480.56 370.635C480.511 370.32 480.612 370.002 480.841 369.75C481.069 369.498 481.407 369.333 481.78 369.291C482.152 369.249 482.529 369.334 482.828 369.527L484.895 370.867L489.781 365.481C489.894 365.356 490.035 365.252 490.196 365.173C490.358 365.094 490.535 365.043 490.72 365.022C490.905 365.002 491.092 365.012 491.272 365.053C491.452 365.094 491.621 365.164 491.768 365.259L491.738 365.295L491.77 365.26C492.068 365.453 492.263 365.739 492.312 366.054C492.361 366.369 492.26 366.687 492.032 366.94L486.286 373.271C486.153 373.417 485.982 373.535 485.786 373.616C485.591 373.697 485.375 373.739 485.158 373.739L485.156 373.74Z" fill="white"/>
<path d="M401.005 198.048C386.678 197.841 380.167 188.656 380.168 180.209C380.169 171.762 386.68 162.578 400.975 162.373H401.006C415.303 162.58 421.814 171.765 421.813 180.212C421.812 188.659 415.3 197.843 401.005 198.048ZM400.991 163.911C387.935 164.104 381.988 172.493 381.987 180.209C381.987 187.928 387.938 196.322 401.005 196.51C414.041 196.323 419.993 187.93 419.993 180.212C419.994 172.496 414.047 164.106 400.991 163.911Z" fill="#49CE91"/>
<path d="M405.727 181.179C409.379 186.54 399.355 188.633 395.521 185.404L396.481 183.67C402.716 188.221 408.21 180.338 398.686 181.087V179.187C407.407 179.781 402.509 172.363 396.699 176.751L395.761 175.017C400.495 170.865 411.124 175.886 403.62 180.035C404.457 180.201 405.201 180.605 405.727 181.179Z" fill="#49CE91"/>
<path d="M529.258 148.083C525.083 148.083 521.002 147.037 517.531 145.077C514.059 143.117 511.354 140.331 509.756 137.071C508.159 133.812 507.741 130.226 508.555 126.766C509.37 123.306 511.38 120.127 514.332 117.633C517.284 115.138 521.046 113.439 525.141 112.751C529.235 112.063 533.48 112.416 537.337 113.766C541.194 115.116 544.491 117.403 546.81 120.336C549.13 123.269 550.368 126.718 550.368 130.246C550.361 134.975 548.135 139.509 544.178 142.853C540.221 146.196 534.855 148.077 529.258 148.083ZM529.258 113.946C525.443 113.946 521.714 114.902 518.542 116.693C515.369 118.484 512.897 121.03 511.437 124.008C509.977 126.986 509.595 130.264 510.339 133.426C511.084 136.587 512.921 139.492 515.619 141.771C518.316 144.051 521.754 145.603 525.495 146.232C529.237 146.861 533.116 146.538 536.641 145.305C540.165 144.071 543.178 141.982 545.297 139.301C547.417 136.621 548.548 133.469 548.548 130.246C548.543 125.924 546.508 121.781 542.892 118.725C539.276 115.67 534.373 113.951 529.258 113.946Z" fill="#49CE91"/>
<path d="M535.119 134.249H532.913V136.813H530.163V134.249H523.395V132.478L530.665 123.678H532.913V132.386H535.119V134.249ZM530.163 132.386V127.386L526.058 132.386H530.163Z" fill="#49CE91"/>
<path d="M661.714 85.819C657.539 85.8189 653.458 84.7728 649.987 82.8128C646.515 80.8528 643.81 78.067 642.212 74.8077C640.615 71.5484 640.197 67.9619 641.011 64.5019C641.826 61.0418 643.836 57.8636 646.788 55.369C649.74 52.8745 653.502 51.1757 657.597 50.4874C661.691 49.7992 665.936 50.1525 669.793 51.5025C673.65 52.8526 676.947 55.1388 679.266 58.0721C681.586 61.0054 682.824 64.454 682.824 67.9818C682.817 72.7109 680.591 77.2448 676.634 80.5887C672.677 83.9326 667.311 85.8136 661.714 85.819ZM661.714 51.6821C657.899 51.6821 654.17 52.6381 650.998 54.4292C647.825 56.2203 645.353 58.7659 643.893 61.7443C642.433 64.7227 642.051 68.0001 642.796 71.1619C643.54 74.3237 645.377 77.228 648.075 79.5076C650.773 81.7871 654.21 83.3395 657.951 83.9684C661.693 84.5973 665.572 84.2745 669.097 83.0408C672.621 81.8071 675.634 79.7179 677.754 77.0375C679.873 74.357 681.004 71.2056 681.004 67.9818C680.999 63.6604 678.964 59.5173 675.348 56.4615C671.732 53.4058 666.829 51.6869 661.714 51.6821Z" fill="#49CE91"/>
<path d="M664.859 66.6074C665.59 66.9487 666.189 67.4612 666.584 68.0833C667.003 68.7566 667.213 69.5087 667.195 70.2692C667.214 71.0686 666.973 71.857 666.497 72.5479C666.02 73.2142 665.321 73.7468 664.488 74.0789C663.54 74.4556 662.501 74.6419 661.453 74.6231C660.472 74.6224 659.498 74.4821 658.571 74.208C657.712 73.9731 656.917 73.5935 656.235 73.0921L657.174 71.3577C658.394 72.2087 659.916 72.6895 661.497 72.7232C662.31 72.7702 663.112 72.5485 663.735 72.105C664.238 71.6192 664.514 70.9946 664.51 70.3489C664.506 69.7032 664.223 69.081 663.713 68.5997C663.428 68.3764 663.092 68.2034 662.727 68.091C662.361 67.9785 661.973 67.9288 661.584 67.9448C660.993 67.9416 660.406 68.0388 659.86 68.2308C659.321 68.4215 658.837 68.7077 658.44 69.0701H656.738V61.3403H666.475V63.1851H659.488V66.764C660.315 66.2991 661.291 66.0608 662.283 66.0816C663.181 66.0656 664.069 66.2468 664.859 66.6074Z" fill="#49CE91"/>
<path d="M166.089 450.517C165.537 449.487 165.259 448.368 165.274 447.238C165.289 446.108 165.597 444.995 166.176 443.976C166.756 442.958 167.592 442.059 168.627 441.344C169.662 440.628 170.87 440.112 172.166 439.834L174.924 412.464L188.187 421.305L183.535 445.94C183.944 447.811 183.527 449.744 182.363 451.373C181.199 453.001 179.368 454.212 177.217 454.776C175.067 455.34 172.747 455.218 170.696 454.433C168.645 453.648 167.006 452.254 166.089 450.517Z" fill="#FFB8B8"/>
<path d="M174.624 436.961C173.67 436.855 172.79 436.467 172.141 435.866C171.491 435.266 171.113 434.491 171.073 433.678L169.537 402.618C168.986 391.454 171.674 380.346 177.37 370.262L190.986 346.152C191.898 344.702 193.206 343.457 194.802 342.52C196.398 341.583 198.236 340.981 200.162 340.764C202.032 340.542 203.938 340.704 205.717 341.238C207.497 341.772 209.097 342.661 210.382 343.831C211.034 344.419 211.62 345.058 212.132 345.738C213.159 347.146 213.754 348.749 213.862 350.401C213.971 352.052 213.589 353.701 212.752 355.196L191.874 403.393L190.267 434.792C190.243 435.268 190.102 435.734 189.855 436.162C189.607 436.59 189.258 436.97 188.828 437.278C188.399 437.586 187.899 437.817 187.359 437.954C186.82 438.092 186.252 438.134 185.693 438.077L174.678 436.967L174.624 436.961Z" fill="#49CE91"/>
<path d="M135.559 572.671L145.771 576.459L167.92 544.976L152.848 539.386L135.559 572.671Z" fill="#FFB8B8"/>
<path d="M134.417 568.887L154.529 576.346C156.212 576.971 157.734 577.869 159.006 578.99C160.278 580.111 161.276 581.433 161.944 582.88C162.612 584.327 162.936 585.871 162.897 587.424C162.859 588.977 162.458 590.508 161.72 591.931L161.537 592.283L128.608 580.069L134.417 568.887Z" fill="#2F2E41"/>
<path d="M272.662 583.147H283.815L289.12 546.797L272.66 546.798L272.662 583.147Z" fill="#FFB8B8"/>
<path d="M269.817 580.07L291.781 580.07C293.619 580.07 295.44 580.376 297.138 580.97C298.837 581.564 300.38 582.435 301.679 583.534C302.979 584.632 304.01 585.936 304.713 587.371C305.417 588.806 305.779 590.344 305.779 591.897V592.281L269.818 592.282L269.817 580.07Z" fill="#2F2E41"/>
<path d="M160.327 572.813C159.898 572.812 159.472 572.755 159.064 572.644L140.153 567.508C139.132 567.226 138.282 566.618 137.784 565.814C137.286 565.009 137.181 564.072 137.491 563.203L200.201 394.464L247.173 386.681L247.339 386.908C278.393 429.607 288.759 494.833 295.335 563.943C295.415 564.846 295.076 565.739 294.39 566.434C293.704 567.129 292.725 567.571 291.659 567.665L270.985 569.412C270.021 569.498 269.052 569.289 268.253 568.824C267.454 568.36 266.877 567.669 266.628 566.877L228.774 453.721C228.699 453.49 228.542 453.284 228.323 453.132C228.105 452.981 227.835 452.89 227.553 452.873C227.271 452.856 226.989 452.914 226.748 453.038C226.506 453.162 226.316 453.347 226.204 453.567L164.075 570.72C163.762 571.341 163.239 571.87 162.573 572.242C161.906 572.614 161.126 572.812 160.327 572.813Z" fill="#2F2E41"/>
<path d="M224.475 326.896C236.815 326.896 246.818 318.443 246.818 308.016C246.818 297.589 236.815 289.136 224.475 289.136C212.135 289.136 202.132 297.589 202.132 308.016C202.132 318.443 212.135 326.896 224.475 326.896Z" fill="#FFB8B8"/>
<path d="M196.208 399.46L196.055 399.19C195.951 399.006 185.657 380.553 186.615 359.269C186.932 352.282 190.397 345.663 196.3 340.764C202.203 335.865 210.098 333.057 218.371 332.916C225.994 332.789 233.426 334.941 239.357 338.99C245.289 343.04 249.338 348.728 250.794 355.053C253.662 367.428 253.591 379.149 250.58 389.889L250.513 390.127L250.228 390.177L196.208 399.46Z" fill="#49CE91"/>
<path d="M310.124 426.095C308.801 425.93 307.537 425.521 306.421 424.899C305.305 424.276 304.364 423.454 303.665 422.491C302.965 421.528 302.524 420.447 302.373 419.324C302.221 418.201 302.363 417.064 302.788 415.992L277.053 399.21L293.031 394.577L315.02 411.225C317.103 411.947 318.8 413.29 319.789 414.999C320.779 416.708 320.992 418.664 320.389 420.497C319.785 422.33 318.407 423.912 316.515 424.944C314.623 425.976 312.349 426.385 310.124 426.095Z" fill="#FFB8B8"/>
<path d="M246.97 389.096L246.911 389.015L219.781 351.889C218.832 350.456 218.302 348.852 218.234 347.211C218.166 345.57 218.563 343.939 219.39 342.453C220.181 341.004 221.375 339.738 222.87 338.763C224.365 337.788 226.117 337.133 227.977 336.854C228.915 336.709 229.867 336.639 230.821 336.644C232.778 336.677 234.695 337.123 236.397 337.94C238.099 338.758 239.532 339.921 240.567 341.326L277.206 382.261L307.573 400.407C308.034 400.682 308.422 401.035 308.713 401.442C309.005 401.85 309.194 402.304 309.268 402.776C309.342 403.248 309.3 403.728 309.145 404.186C308.989 404.643 308.724 405.069 308.364 405.436L301.295 412.659C300.677 413.294 299.81 413.722 298.852 413.865C297.893 414.008 296.906 413.856 296.068 413.438L246.97 389.096Z" fill="#49CE91"/>
<path d="M220.477 306.845C222.124 304.556 225.758 303.909 228.913 304.17C232.068 304.431 235.136 305.369 238.306 305.348C247.109 305.29 253.903 296.225 250.202 289.476C247.167 283.941 239.587 281.511 232.73 279.603C218.353 275.604 201.838 271.761 188.792 278.246C184.635 280.374 181.225 283.4 178.915 287.014C176.605 290.628 175.478 294.697 175.652 298.801C175.945 303.905 178.258 309.147 176.302 313.982C174.045 319.559 166.89 322.552 160.127 323.999C148.273 326.537 135.775 326.128 123.847 328.404C111.919 330.68 99.6959 336.724 96.4806 346.693C94.3686 353.241 96.5724 360.291 100.222 366.337C103.945 372.505 109.12 377.967 115.428 382.386C121.737 386.806 129.047 390.091 136.911 392.04C144.774 393.989 153.026 394.561 161.16 393.721C169.294 392.881 177.14 390.647 184.217 387.155C198.637 380.04 209.048 368.015 215.255 354.915C218.774 347.274 221.252 339.319 222.639 331.204C224.029 323.608 222.85 315.931 220.332 308.544C220.213 308.269 220.164 307.974 220.189 307.682C220.214 307.389 220.313 307.103 220.477 306.845Z" fill="#2F2E41"/>
<defs>
<filter id="filter0_d_0_1" x="-190" y="-209" width="1162" height="1058" filterUnits="userSpaceOnUse" color-interpolation-filters="sRGB">
<feFlood flood-opacity="0" result="BackgroundImageFix"/>
<feColorMatrix in="SourceAlpha" type="matrix" values="0 0 0 0 0 0 0 0 0 0 0 0 0 0 0 0 0 0 127 0" result="hardAlpha"/>
<feOffset/>
<feGaussianBlur stdDeviation="15"/>
<feComposite in2="hardAlpha" operator="out"/>
<feColorMatrix type="matrix" values="0 0 0 0 0.295833 0 0 0 0 0.295833 0 0 0 0 0.295833 0 0 0 0.15 0"/>
<feBlend mode="normal" in2="BackgroundImageFix" result="effect1_dropShadow_0_1"/>
<feBlend mode="normal" in="SourceGraphic" in2="effect1_dropShadow_0_1" result="shape"/>
</filter>
</defs>
</svg>
